<?xml version="1.0" standalone="no"?>
<!DOCTYPE svg PUBLIC "-//W3C//DTD SVG 20010904//EN"
 "http://www.w3.org/TR/2001/REC-SVG-20010904/DTD/svg10.dtd">
<svg version="1.0" xmlns="http://www.w3.org/2000/svg"
 width="700.000000pt" height="700.000000pt" viewBox="0 0 700.000000 700.000000"
 preserveAspectRatio="xMidYMid meet">
<metadata>
Created by potrace 1.14, written by Peter Selinger 2001-2017
</metadata>
<g transform="translate(0.000000,700.000000) scale(0.100000,-0.100000)"
fill="#000000" stroke="none">
<path d="M3219 6976 c-2 -2 -39 -7 -81 -10 -433 -32 -948 -189 -1340 -408 -40
-22 -86 -47 -101 -55 -32 -17 -279 -182 -287 -192 -3 -3 -31 -25 -63 -49 -232
-173 -512 -466 -704 -737 -215 -303 -406 -704 -493 -1035 -12 -47 -26 -96 -31
-110 -13 -39 -56 -265 -69 -365 -6 -49 -13 -103 -16 -120 -10 -57 -13 -531 -4
-623 11 -115 20 -192 25 -212 2 -8 7 -40 10 -70 4 -30 9 -58 11 -61 2 -4 6
-24 10 -44 7 -47 10 -59 23 -115 7 -25 13 -53 16 -63 2 -10 7 -27 10 -37 3
-10 7 -27 9 -37 8 -42 82 -256 122 -355 97 -239 188 -411 329 -623 136 -204
248 -339 435 -525 274 -274 520 -453 855 -625 118 -61 184 -90 370 -165 91
-37 331 -107 445 -131 84 -17 205 -39 250 -45 25 -3 52 -8 61 -9 9 -2 52 -6
95 -10 43 -4 93 -8 109 -10 43 -6 401 -5 460 0 28 2 79 7 115 10 36 3 76 7 90
10 212 32 271 43 431 84 603 154 1186 497 1613 950 28 30 62 66 76 81 14 14
43 48 65 76 21 27 42 51 45 54 20 16 198 265 247 345 145 237 261 485 344 737
31 96 94 332 104 390 3 18 10 56 15 83 5 28 12 73 16 100 3 28 8 57 9 66 3 15
12 110 21 211 9 120 3 473 -10 563 -3 17 -8 55 -11 85 -9 86 -29 206 -47 285
-40 181 -120 446 -173 570 -9 22 -24 58 -33 80 -106 255 -308 583 -515 835
-89 109 -338 356 -442 440 -44 35 -82 67 -85 70 -3 3 -21 17 -40 30 -19 13
-37 27 -40 30 -13 16 -276 184 -369 235 -338 187 -700 312 -1096 380 -16 2
-39 7 -50 9 -11 2 -51 7 -90 11 -38 4 -79 10 -90 12 -24 6 -551 14 -556 9z"/>
</g>
</svg>
